<?xml version="1.0" encoding="UTF-8"?>
<!DOCTYPE svg PUBLIC "-//W3C//DTD SVG 1.1//EN" "http://www.w3.org/Graphics/SVG/1.1/DTD/svg11.dtd">
<svg version="1.0" xmlns="http://www.w3.org/2000/svg"
width="180.000000pt" height="165.000000pt" viewBox="0 0 180.000000 165.000000"
preserveAspectRatio="xMidYMid meet">
<metadata>
    Created by potrace 1.10, written by Peter Selinger 2001-2011
</metadata>
<g transform="translate(0.000000,165.000000) scale(0.100000,-0.100000)"
    fill="#ffffff" stroke="none">
    <path d="M1118 1423 c-28 -31 -65 -114 -93 -208 -15 -49 -30 -99 -35 -110 -11
-27 -149 -190 -256 -303 -75 -78 -94 -92 -120 -92 -36 0 -76 35 -105 91 -10
20 -32 48 -49 63 -50 42 -95 34 -170 -29 -55 -46 -94 -63 -168 -74 l-57 -9 55
-1 c65 -1 120 22 192 79 81 64 136 52 183 -39 32 -65 76 -101 123 -101 34 0
46 9 155 122 65 68 135 144 155 170 19 26 38 46 40 43 8 -8 -80 -300 -97 -321
-152 -195 -217 -297 -242 -381 -9 -34 -10 -52 0 -83 10 -35 16 -40 41 -40 21
0 36 9 54 33 40 53 104 199 156 355 45 139 49 146 115 223 38 44 80 82 93 86
30 7 55 -16 94 -90 17 -32 50 -74 71 -93 76 -64 141 -55 238 31 79 70 134 96
203 96 30 0 64 -5 75 -11 12 -6 21 -7 21 -1 0 17 -71 34 -121 28 -63 -8 -123
-39 -185 -97 -54 -52 -115 -77 -158 -66 -40 10 -90 60 -125 126 -67 126 -105
132 -199 33 -37 -40 -62 -60 -59 -48 51 203 82 295 118 347 63 91 111 200 107
244 -3 44 -25 55 -50 27z m27 -45 c-12 -44 -85 -191 -92 -185 -6 7 29 110 59
170 20 41 43 51 33 15z m-310 -830 c-44 -126 -132 -308 -152 -315 -43 -17 -39
67 9 160 33 68 169 270 175 263 3 -2 -12 -51 -32 -108z"/>
</g>
</svg>
